<?xml version="1.0" encoding="UTF-8" standalone="no"?>
<svg width="361px" height="213px" viewBox="0 0 361 213" version="1.1" xmlns="http://www.w3.org/2000/svg" xmlns:xlink="http://www.w3.org/1999/xlink">
    <!-- Generator: Sketch Beta 3.7.1 (28208) - http://www.bohemiancoding.com/sketch -->
    <title>Page 1</title>
    <desc>Created with Sketch Beta.</desc>
    <defs>
        <polygon id="path-1" points="69.0993 0.015 0.9443 0.015 0.9443 68.8825 69.0993 68.8825 69.0993 0.015"></polygon>
        <polygon id="path-3" points="364.252 213 364.252 0.015 0 0.015 0 213 364.2517 213 364.2517 199.0481 350.2557 199.0481 350.2557 213.0001 364.2517 213.0001"></polygon>
        <polygon id="path-5" points="0.4941 69 64.0131 69 64.0131 0.1324 0.4941 0.1324"></polygon>
    </defs>
    <g id="Page-1" stroke="none" stroke-width="1" fill="none" fill-rule="evenodd">
        <g transform="translate(0.000000, -1.000000)">
            <polygon id="Fill-1" fill="#DD7400" points="114.0647 2.6489 146.6047 2.6489 146.6047 14.8179 126.4567 14.8179 126.4567 26.7189 146.6047 26.7189 146.6047 38.7099 126.4567 38.7099 126.4567 68.2189 114.0647 68.2189"></polygon>
            <g id="Group-7" transform="translate(152.000000, 0.985000)">
                <g id="Group-4">
                    <mask id="mask-2" fill="white">
                        <use xlink:href="#path-1"></use>
                    </mask>
                    <g id="Clip-3"></g>
                    <path d="M35.1553,0.0145 C44.4323,0.0145 52.4093,3.3735 59.0853,10.0885 C65.7603,16.8045 69.0993,24.9915 69.0993,34.6495 C69.0993,44.2175 65.8053,52.3165 59.2183,58.9425 C52.6323,65.5695 44.6403,68.8825 35.2443,68.8825 C25.4023,68.8825 17.2243,65.4805 10.7123,58.6755 C4.2003,51.8705 0.9443,43.7875 0.9443,34.4265 C0.9443,28.1565 2.4603,22.3915 5.4933,17.1315 C8.5273,11.8715 12.6973,7.7035 18.0053,4.6285 C23.3123,1.5525 29.0293,0.0145 35.1553,0.0145 M35.0213,12.2285 C28.9523,12.2285 23.8503,14.3385 19.7163,18.5575 C15.5813,22.7775 13.5143,28.1415 13.5143,34.6495 C13.5143,41.8995 16.1173,47.6355 21.3233,51.8555 C25.3693,55.1535 30.0083,56.8025 35.2443,56.8025 C41.1633,56.8025 46.2053,54.6635 50.3703,50.3845 C54.5353,46.1045 56.6183,40.8305 56.6183,34.5605 C56.6183,28.3195 54.5203,23.0375 50.3263,18.7135 C46.1313,14.3895 41.0303,12.2285 35.0213,12.2285" id="Fill-2" fill="#DD7400" mask="url(#mask-2)"></path>
                </g>
                <path d="M76.1294,1.6639 L89.3524,1.6639 C96.5944,1.6639 101.7524,2.3099 104.8244,3.6029 C107.8964,4.8959 110.3674,7.0429 112.2374,10.0439 C114.1074,13.0459 115.0434,16.5969 115.0434,20.6969 C115.0434,25.0059 114.0104,28.6089 111.9454,31.5069 C109.8804,34.4039 106.7674,36.5959 102.6084,38.0819 L118.1414,67.2339 L104.4974,67.2339 L89.7524,39.4629 L88.6104,39.4629 L88.6104,67.2339 L76.1294,67.2339 L76.1294,1.6639 Z M88.6104,27.2949 L92.5214,27.2949 C96.4904,27.2949 99.2234,26.7729 100.7194,25.7289 C102.2154,24.6859 102.9634,22.9569 102.9634,20.5409 C102.9634,19.1109 102.5934,17.8659 101.8524,16.8079 C101.1114,15.7489 100.1194,14.9889 98.8754,14.5259 C97.6314,14.0639 95.3504,13.8329 92.0324,13.8329 L88.6104,13.8329 L88.6104,27.2949 Z" id="Fill-5" fill="#DD7400"></path>
            </g>
            <path d="M25.2855,74.5579 L-0.0005,140.1269 L12.9705,140.1269 L18.3055,126.6219 L45.0615,126.6219 L50.1915,140.1269 L63.1615,140.1269 L37.9435,74.5579 L25.2855,74.5579 Z M31.6925,91.9419 L40.4375,114.4529 L22.8955,114.4529 L31.6925,91.9419 Z" id="Fill-8" fill="#FEFEFE"></path>
            <path d="M64.4304,74.5582 L76.9564,74.5582 L76.9564,116.9592 C76.9564,120.6112 77.2744,123.1952 77.9144,124.7092 C78.5534,126.2232 79.6084,127.4342 81.0784,128.3392 C82.5504,129.2442 84.3254,129.6972 86.4054,129.6972 C88.6044,129.6972 90.4994,129.1932 92.0884,128.1832 C93.6784,127.1742 94.7784,125.8902 95.3874,124.3312 C95.9964,122.7722 96.3014,119.7952 96.3014,115.4002 L96.3014,74.5582 L108.8264,74.5582 L108.8264,113.6502 C108.8264,120.2472 108.4544,124.8242 107.7124,127.3792 C106.9694,129.9352 105.5504,132.4012 103.4554,134.7792 C101.3604,137.1562 98.9464,138.9172 96.2124,140.0612 C93.4774,141.2042 90.2984,141.7772 86.6734,141.7772 C81.9184,141.7772 77.7804,140.6852 74.2584,138.5012 C70.7374,136.3162 68.2194,133.5822 66.7034,130.2992 C65.1884,127.0162 64.4304,121.4662 64.4304,113.6502 L64.4304,74.5582 Z" id="Fill-9" fill="#FEFEFE"></path>
            <polygon id="Fill-11" fill="#FEFEFE" points="114.0647 74.5582 150.3037 74.5582 150.3037 86.8612 138.3577 86.8612 138.3577 140.1282 125.6987 140.1282 125.6987 86.8612 114.0647 86.8612"></polygon>
            <polygon id="Fill-12" fill="#FEFEFE" points="155.3759 74.5582 168.0349 74.5582 168.0349 99.2972 189.9219 99.2972 189.9219 74.5582 202.5359 74.5582 202.5359 140.1282 189.9219 140.1282 189.9219 111.3772 168.0349 111.3772 168.0349 140.1282 155.3759 140.1282"></polygon>
            <polygon id="Fill-13" fill="#FEFEFE" points="208.8759 74.5582 244.6689 74.5582 244.6689 86.7722 221.2679 86.7722 221.2679 98.6282 244.6689 98.6282 244.6689 110.6192 221.2679 110.6192 221.2679 127.8692 244.6689 127.8692 244.6689 140.1282 208.8759 140.1282"></polygon>
            <polygon id="Fill-14" fill="#FEFEFE" points="251.0094 74.5582 262.9824 74.5582 291.0374 117.7062 291.0374 74.5582 303.5184 74.5582 303.5184 140.1282 291.5114 140.1282 263.4904 97.1132 263.4904 140.1282 251.0094 140.1282"></polygon>
            <polygon id="Fill-15" fill="#FEFEFE" points="308.5903 74.5582 344.8293 74.5582 344.8293 86.8612 332.8833 86.8612 332.8833 140.1282 320.2243 140.1282 320.2243 86.8612 308.5903 86.8612"></polygon>
            <g id="Group-18" transform="translate(0.000000, 0.985000)">
                <mask id="mask-4" fill="white">
                    <use xlink:href="#path-3"></use>
                </mask>
                <g id="Clip-17"></g>
                <path d="M357.2537,199.0481 C359.1857,199.0481 360.8347,199.7241 362.2017,201.0761 C363.5677,202.4281 364.2517,204.0701 364.2517,206.0021 C364.2517,207.9331 363.5677,209.5831 362.2017,210.9491 C360.8347,212.3151 359.1857,213.0001 357.2537,213.0001 C355.3217,213.0001 353.6717,212.3151 352.3057,210.9491 C350.9387,209.5831 350.2557,207.9331 350.2557,206.0021 C350.2557,204.0701 350.9387,202.4281 352.3057,201.0761 C353.6717,199.7241 355.3217,199.0481 357.2537,199.0481" id="Fill-16" fill="#FEFEFE" mask="url(#mask-4)"></path>
            </g>
            <polygon id="Fill-19" fill="#FEFEFE" points="155.376 212.336 167.768 212.336 167.768 146.766 155.376 146.766"></polygon>
            <g id="Group-22" transform="translate(175.000000, 144.985000)">
                <mask id="mask-6" fill="white">
                    <use xlink:href="#path-5"></use>
                </mask>
                <g id="Clip-21"></g>
                <path d="M64.0131,13.3044 L55.2841,21.6264 C49.3461,15.3504 42.6651,12.2114 35.2421,12.2114 C28.9781,12.2114 23.7001,14.3534 19.4101,18.6364 C15.1201,22.9204 12.9751,28.2004 12.9751,34.4764 C12.9751,38.8494 13.9241,42.7314 15.8251,46.1224 C17.7241,49.5144 20.4121,52.1754 23.8861,54.1094 C27.3601,56.0424 31.2191,57.0094 35.4651,57.0094 C39.0871,57.0094 42.3981,56.3334 45.3971,54.9794 C48.3951,53.6264 51.6901,51.1644 55.2841,47.5944 L63.7451,56.4244 C58.9021,61.1524 54.3251,64.4294 50.0161,66.2584 C45.7081,68.0854 40.7891,69.0004 35.2621,69.0004 C25.0691,69.0004 16.7261,65.7684 10.2331,59.3054 C3.7401,52.8414 0.4941,44.5584 0.4941,34.4544 C0.4941,27.9174 1.9711,22.1074 4.9291,17.0254 C7.8861,11.9444 12.1201,7.8594 17.6331,4.7674 C23.1451,1.6774 29.0811,0.1324 35.4401,0.1324 C40.8491,0.1324 46.0561,1.2744 51.0641,3.5584 C56.0711,5.8434 60.3871,9.0924 64.0131,13.3044" id="Fill-20" fill="#FEFEFE" mask="url(#mask-6)"></path>
            </g>
            <polygon id="Fill-23" fill="#FEFEFE" points="246.739 212.336 259.131 212.336 259.131 146.766 246.739 146.766"></polygon>
            <polygon id="Fill-24" fill="#FEFEFE" points="264.3688 146.7662 300.6078 146.7662 300.6078 159.0692 288.6618 159.0692 288.6618 212.3362 276.0028 212.3362 276.0028 159.0692 264.3688 159.0692"></polygon>
            <polygon id="Fill-25" fill="#FEFEFE" points="305.6798 146.7662 319.0798 146.7662 331.3118 170.3532 343.4868 146.7662 356.7178 146.7662 337.5288 183.9412 337.5288 212.3362 324.9588 212.3362 324.9588 183.9412"></polygon>
        </g>
    </g>
</svg>