<?xml version="1.0" encoding="UTF-8" standalone="no"?>
<svg width="171px" height="80px" viewBox="0 0 171 80" version="1.1" xmlns="http://www.w3.org/2000/svg" xmlns:xlink="http://www.w3.org/1999/xlink">
    <!-- Generator: Sketch Beta 3.7.1 (28208) - http://www.bohemiancoding.com/sketch -->
    <title>Page 1</title>
    <desc>Created with Sketch Beta.</desc>
    <defs></defs>
    <g id="Page-1" stroke="none" stroke-width="1" fill="none" fill-rule="evenodd">
        <g transform="translate(0.000000, -1.000000)" fill="#FEFEFE">
            <polygon id="Fill-1" points="19.0125 0.9997 19.0125 14.6147 6.9665 14.6147 6.9665 0.9997 0.0005 0.9997 0.0005 37.0857 6.9665 37.0857 6.9665 21.2627 19.0125 21.2627 19.0125 37.0857 25.9545 37.0857 25.9545 0.9997"></polygon>
            <path d="M43.011,0.9997 L29.094,37.0857 L36.233,37.0857 L39.169,29.6527 L53.894,29.6527 L56.717,37.0857 L63.856,37.0857 L49.977,0.9997 L43.011,0.9997 Z M46.536,10.5677 L51.35,22.9557 L41.695,22.9557 L46.536,10.5677 Z" id="Fill-2"></path>
            <g id="Group-7" transform="translate(66.000000, 0.243800)">
                <path d="M0.9962,0.7562 L8.2742,0.7562 C12.2592,0.7562 15.0982,1.1122 16.7882,1.8232 C18.4792,2.5352 19.8392,3.7162 20.8682,5.3682 C21.8982,7.0202 22.4122,8.9742 22.4122,11.2312 C22.4122,13.6022 21.8442,15.5852 20.7072,17.1802 C19.5712,18.7752 17.8582,19.9812 15.5692,20.7982 L24.1172,36.8422 L16.6082,36.8422 L8.4942,21.5592 L7.8652,21.5592 L7.8652,36.8422 L0.9962,36.8422 L0.9962,0.7562 Z M7.8652,14.8622 L10.0172,14.8622 C12.2022,14.8622 13.7062,14.5752 14.5292,14.0012 C15.3522,13.4262 15.7642,12.4742 15.7642,11.1452 C15.7642,10.3582 15.5602,9.6732 15.1532,9.0902 C14.7452,8.5082 14.1992,8.0892 13.5142,7.8352 C12.8302,7.5802 11.5742,7.4532 9.7482,7.4532 L7.8652,7.4532 L7.8652,14.8622 Z" id="Fill-3"></path>
                <path d="M29.3508,0.7562 L36.6368,0.7562 C40.5778,0.7562 43.4198,1.1202 45.1618,1.8482 C46.9028,2.5752 48.2768,3.7532 49.2828,5.3802 C50.2888,7.0082 50.7918,8.9582 50.7918,11.2312 C50.7918,13.7502 50.1328,15.8432 48.8168,17.5112 C47.4998,19.1792 45.7138,20.3412 43.4568,20.9952 C42.1318,21.3712 39.7198,21.5592 36.2198,21.5592 L36.2198,36.8422 L29.3508,36.8422 L29.3508,0.7562 Z M36.2198,14.8622 L38.4028,14.8622 C40.1198,14.8622 41.3138,14.7392 41.9848,14.4932 C42.6548,14.2462 43.1828,13.8412 43.5668,13.2742 C43.9508,12.7082 44.1438,12.0232 44.1438,11.2192 C44.1438,9.8252 43.6038,8.8072 42.5248,8.1672 C41.7388,7.6912 40.2838,7.4532 38.1578,7.4532 L36.2198,7.4532 L36.2198,14.8622 Z" id="Fill-5"></path>
            </g>
            <polygon id="Fill-8" points="122.0247 0.9997 122.0247 37.0857 141.7237 37.0857 141.7237 30.3397 128.8447 30.3397 128.8447 20.8467 141.7237 20.8467 141.7237 14.2467 128.8447 14.2467 128.8447 7.7217 141.7237 7.7217 141.7237 0.9997"></polygon>
            <path d="M146.9575,1 L154.2355,1 C158.2205,1 161.0595,1.356 162.7495,2.067 C164.4405,2.779 165.8005,3.96 166.8295,5.612 C167.8595,7.264 168.3735,9.218 168.3735,11.475 C168.3735,13.846 167.8055,15.829 166.6685,17.424 C165.5325,19.019 163.8185,20.225 161.5305,21.042 L170.0785,37.086 L162.5695,37.086 L154.4545,21.803 L153.8265,21.803 L153.8265,37.086 L146.9575,37.086 L146.9575,1 Z M153.8265,15.106 L155.9785,15.106 C158.1635,15.106 159.6665,14.819 160.4905,14.245 C161.3135,13.67 161.7255,12.718 161.7255,11.389 C161.7255,10.602 161.5215,9.917 161.1145,9.334 C160.7065,8.752 160.1605,8.333 159.4755,8.079 C158.7905,7.824 157.5355,7.697 155.7095,7.697 L153.8265,7.697 L153.8265,15.106 Z" id="Fill-9"></path>
            <polygon id="Fill-11" points="45.7038 44.1592 45.7038 80.2442 62.5818 80.2442 62.5818 73.6942 52.5728 73.6942 52.5728 44.1592"></polygon>
            <polygon id="Fill-12" points="67.8141 44.1592 67.8141 80.2442 87.5131 80.2442 87.5131 73.4972 74.6341 73.4972 74.6341 64.0042 87.5131 64.0042 87.5131 57.4052 74.6341 57.4052 74.6341 50.8802 87.5131 50.8802 87.5131 44.1592"></polygon>
            <polygon id="Fill-13" points="126.4815 44.1592 121.3165 67.1942 114.7785 44.1592 109.0665 44.1592 102.6245 67.1942 97.4095 44.1592 90.6525 44.1592 98.8215 80.2442 105.3465 80.2442 111.8715 56.9152 118.5205 80.2442 125.1095 80.2442 133.2385 44.1592"></polygon>
            <polygon id="Fill-14" points="136.379 80.2438 143.198 80.2438 143.198 44.1588 136.379 44.1588"></polygon>
            <g id="Group-19" transform="translate(0.000000, 42.243800)">
                <path d="M169.438,5.9135 L164.351,10.4025 C162.565,7.9165 160.746,6.6735 158.895,6.6735 C157.994,6.6735 157.256,6.9155 156.684,7.3975 C156.11,7.8805 155.823,8.4235 155.823,9.0285 C155.823,9.6345 156.028,10.2065 156.438,10.7465 C156.995,11.4655 158.674,13.0115 161.475,15.3825 C164.096,17.5735 165.685,18.9555 166.243,19.5285 C167.635,20.9345 168.621,22.2795 169.203,23.5635 C169.784,24.8475 170.076,26.2495 170.076,27.7705 C170.076,30.7305 169.053,33.1755 167.006,35.1055 C164.959,37.0355 162.291,37.9995 159,37.9995 C156.43,37.9995 154.191,37.3705 152.284,36.1115 C150.376,34.8515 148.743,32.8735 147.385,30.1745 L153.159,26.6915 C154.894,29.8805 156.892,31.4745 159.153,31.4745 C160.332,31.4745 161.323,31.1315 162.126,30.4445 C162.928,29.7575 163.33,28.9645 163.33,28.0645 C163.33,27.2475 163.026,26.4295 162.42,25.6115 C161.814,24.7945 160.479,23.5435 158.415,21.8585 C154.483,18.6535 151.944,16.1795 150.797,14.4385 C149.651,12.6965 149.077,10.9585 149.077,9.2255 C149.077,6.7235 150.031,4.5765 151.938,2.7855 C153.845,0.9955 156.199,0.0995 159,0.0995 C160.801,0.0995 162.516,0.5165 164.145,1.3505 C165.774,2.1845 167.539,3.7055 169.438,5.9135" id="Fill-15"></path>
                <path d="M25.1299,37.0924 L35.1089,37.0924 C33.2589,35.0614 30.4919,31.8614 28.5639,29.7964 C30.7379,26.5844 30.9859,23.9164 31.1339,22.3354 L23.6719,21.0004 C23.5739,21.4954 23.3259,22.5814 23.0799,23.6204 L17.5459,17.4924 C19.6209,16.4554 20.5099,15.1704 20.6089,15.0724 C21.8439,13.4414 22.6839,11.2674 22.6839,9.0934 C22.6839,3.8544 18.5339,0.0994 13.2959,0.0994 C8.1569,0.0994 3.9069,3.8544 3.9069,9.0934 C3.9069,10.9704 4.4019,12.6504 5.3899,14.1334 C2.1289,16.6034 0.0039,20.6054 0.0039,24.9544 C0.0039,32.4164 5.8839,37.9494 13.2469,37.9984 C20.1639,37.9984 22.9809,35.7754 23.5739,35.3804 L25.1299,37.0924 Z M13.2959,31.3774 C10.1339,31.3774 7.5639,28.4624 7.5639,24.9544 C7.5639,22.9284 8.4529,21.0004 9.7879,19.8644 C12.9499,23.4224 15.6679,26.4364 18.7309,29.8454 C16.6069,31.0314 14.9759,31.3774 13.2959,31.3774 L13.2959,31.3774 Z" id="Fill-17"></path>
            </g>
        </g>
    </g>
</svg>